<svg width="216" height="51" viewBox="0 0 216 51" fill="none" xmlns="http://www.w3.org/2000/svg">
<g id="Group">
<path id="Vector" fill-rule="evenodd" clip-rule="evenodd" d="M133.59 39.7513C121.123 46.9789 102.989 50.8297 87.3479 50.8297C65.4357 50.8297 45.7904 44.4907 30.8297 33.9455C29.6963 33.1161 30.6786 31.9905 32.1142 32.6421C48.2083 39.9883 68.0803 44.3722 88.6323 44.3722C102.46 44.3722 117.723 42.121 131.777 37.4408C133.892 36.7891 135.63 38.5664 133.59 39.7513Z" fill="white" fill-opacity="0.5"/>
<path id="Vector_2" fill-rule="evenodd" clip-rule="evenodd" d="M138.803 35.0727C137.216 33.4732 128.225 34.3026 124.22 34.7173C123.011 34.8358 122.785 34.0064 123.918 33.4139C131.096 29.4446 142.808 30.6295 144.168 31.9329C145.528 33.2362 143.79 42.4781 137.065 46.8621C136.008 47.5138 135.025 47.1583 135.479 46.2697C136.99 43.3075 140.39 36.7315 138.803 35.0727Z" fill="white" fill-opacity="0.5"/>
<path id="Vector_3" fill-rule="evenodd" clip-rule="evenodd" d="M124.446 5.56884V1.71804C124.446 1.12561 124.975 0.770152 125.655 0.770152H147.567C148.247 0.770152 148.851 1.18486 148.851 1.71804V4.97641C148.851 5.50959 148.247 6.22051 147.189 7.40537L135.855 20.0834C140.086 20.0241 144.544 20.4981 148.322 22.1569C149.153 22.5123 149.38 23.1048 149.456 23.638V27.7257C149.456 28.3181 148.7 28.9698 147.869 28.6144C141.144 25.8299 132.153 25.5337 124.748 28.6736C123.992 28.9698 123.161 28.3774 123.161 27.785V23.8749C123.161 23.2825 123.161 22.2161 123.992 21.2682L137.14 6.51673H125.73C125.05 6.51673 124.446 6.10202 124.446 5.56884ZM44.5798 29.4438H37.9306C37.3261 29.3845 36.7972 29.0291 36.7217 28.5551V1.77729C36.7217 1.2441 37.3261 0.829398 38.0062 0.829398H44.202C44.882 0.829398 45.3354 1.2441 45.411 1.71804V5.21338H45.5621C47.1488 1.83653 50.2467 0.236968 54.3269 0.236968C58.4827 0.236968 61.1272 1.83653 62.9406 5.21338C64.5274 1.83653 68.2298 0.236968 72.1588 0.236968C74.9545 0.236968 77.9769 1.12561 79.8659 3.19912C81.9815 5.45035 81.5282 8.70872 81.5282 11.6116V28.5551C81.5282 29.0883 80.9237 29.503 80.2437 29.503H73.67C72.99 29.4438 72.4611 29.0291 72.4611 28.5551V14.3368C72.4611 13.2112 72.6122 10.3675 72.31 9.30114C71.7811 7.52385 70.3454 6.99067 68.3809 6.99067C66.7942 6.99067 65.0563 7.82008 64.3763 9.18266C63.6962 10.5453 63.7718 12.7965 63.7718 14.3368V28.5551C63.7718 29.0883 63.1673 29.503 62.4873 29.503H55.8381C55.1581 29.4438 54.6292 29.0291 54.6292 28.5551V14.3368C54.6292 11.3746 55.2336 6.93142 50.549 6.93142C45.7887 6.93142 45.9399 11.1969 45.9399 14.3368V28.5551C45.8643 29.0291 45.3354 29.4438 44.5798 29.4438ZM167.741 0.236968C177.639 0.236968 183.004 6.87218 183.004 15.3439C183.004 23.5195 177.11 30.0362 167.741 30.0362C158.069 30.0362 152.78 23.401 152.78 15.107C152.705 6.7537 158.069 0.236968 167.741 0.236968ZM167.741 5.74656C162.83 5.74656 162.527 11.0192 162.527 14.2776C162.527 17.5359 162.452 24.5266 167.665 24.5266C172.803 24.5266 173.106 18.8985 173.106 15.4624C173.106 13.2112 172.955 10.486 172.123 8.35327C171.368 6.45749 169.857 5.74656 167.741 5.74656ZM195.773 29.4438H189.124C188.444 29.3845 187.915 28.9698 187.915 28.4959V1.6588C187.991 1.18485 188.52 0.770152 189.2 0.770152H195.396C196 0.770152 196.453 1.12562 196.605 1.54032V5.62808H196.756C198.645 1.95502 201.214 0.236968 205.823 0.236968C208.77 0.236968 211.716 1.06636 213.605 3.37684C215.343 5.50959 215.343 9.12341 215.343 11.7301V28.6144C215.268 29.0883 214.739 29.4438 214.059 29.4438H207.409C206.805 29.3845 206.276 29.0291 206.201 28.6144V14.0406C206.201 11.0784 206.654 6.81294 202.045 6.81294C200.458 6.81294 198.947 7.64235 198.191 8.9457C197.285 10.6045 197.133 12.204 197.133 14.0406V28.4959C197.058 29.0291 196.453 29.4438 195.773 29.4438ZM106.992 16.6473C106.992 18.6615 107.067 20.3796 105.783 22.2161C104.725 23.6972 103.062 24.5858 101.173 24.5858C98.6045 24.5858 97.0933 23.0455 97.0933 20.7943C97.0933 16.3511 102.156 15.5217 106.992 15.5217V16.6473ZM113.716 29.3845C113.263 29.6807 112.658 29.74 112.13 29.503C109.938 28.0812 109.485 27.3703 108.276 26.0077C104.649 28.9106 102.005 29.7992 97.32 29.7992C91.7286 29.7992 87.3462 27.0741 87.3462 21.6829C87.3462 17.4174 90.293 14.5738 94.4487 13.1519C98.0756 11.9078 103.138 11.6709 106.992 11.3154V10.6637C106.992 9.41964 107.143 7.93856 106.16 6.87219C105.329 5.9243 103.818 5.50959 102.458 5.50959C99.889 5.50959 97.6222 6.51673 97.0933 8.64948C96.9422 9.12342 96.5644 9.59735 95.9599 9.59735L89.5374 9.06417C89.0085 8.94568 88.404 8.64948 88.5552 7.9978C90.0663 1.83653 97.0933 0 103.44 0C106.689 0 110.921 0.651669 113.49 2.60669C116.739 4.97641 116.436 8.17554 116.436 11.6116V19.7279C116.436 22.1569 117.721 23.2233 118.93 24.5858C119.383 25.0598 119.459 25.6522 118.93 25.9484C117.494 26.8371 115.076 28.4959 113.716 29.3845ZM19.7209 16.6473C19.7209 18.6615 19.7965 20.3796 18.512 22.2161C17.4541 23.6972 15.7918 24.5858 13.9029 24.5858C11.3338 24.5858 9.82267 23.0455 9.82267 20.7943C9.82267 16.3511 14.8851 15.5217 19.7209 15.5217V16.6473ZM26.3701 29.3845C25.9167 29.6807 25.3123 29.74 24.7834 29.503C22.5921 28.0812 22.1388 27.3703 20.9298 26.0077C17.303 28.9106 14.6584 29.7992 9.97379 29.7992C4.38242 29.7992 0 27.0741 0 21.6829C0 17.4174 2.9468 14.5738 7.10254 13.1519C10.7294 11.9078 15.7918 11.6709 19.6453 11.3154V10.6637C19.6453 9.41964 19.7965 7.93856 18.8142 6.87219C17.983 5.9243 16.4719 5.50959 15.1118 5.50959C12.5428 5.50959 10.276 6.51673 9.74711 8.64948C9.59599 9.12342 9.21819 9.59735 8.61372 9.59735L2.19121 9.06417C1.66229 8.94568 1.05783 8.64948 1.20895 7.9978C2.72013 1.83653 9.74711 0 16.0941 0C19.3431 0 23.5744 0.651669 26.1434 2.60669C29.3925 4.97641 29.0902 8.17554 29.0902 11.6116V19.7279C29.0902 22.1569 30.3747 23.2233 31.5837 24.5858C32.037 25.0598 32.1126 25.6522 31.5837 25.9484C30.148 26.8371 27.7301 28.4959 26.3701 29.3845Z" fill="white" fill-opacity="0.5"/>
</g>
</svg>
