<svg width="156" height="42" viewBox="0 0 156 42" fill="none" xmlns="http://www.w3.org/2000/svg">
<g clip-path="url(#clip0_2357_66)">
<path d="M4.01562 11.915L20.5017 39.9997V27.8011L4.01562 11.915Z" fill="url(#paint0_linear_2357_66)"/>
<path d="M4.01474 11.9155L0 40.0002L9.9799 22.0779L4.01474 11.9155Z" fill="url(#paint1_linear_2357_66)"/>
<path d="M9.9799 22.0776L0 39.9999L15.2396 31.038L9.9799 22.0776Z" fill="url(#paint2_linear_2357_66)"/>
<path d="M20.5 0V27.8014L10.9883 18.636L20.5 0Z" fill="url(#paint3_linear_2357_66)"/>
<path d="M36.9861 11.915L20.5 39.9997V27.8011L36.9861 11.915Z" fill="url(#paint4_linear_2357_66)"/>
<path d="M36.9886 11.915L41.0018 39.9997L31.0234 22.0774L36.9886 11.915Z" fill="url(#paint5_linear_2357_66)"/>
<path d="M31.023 22.0776L41.0013 39.9999L25.7617 31.038L31.023 22.0776Z" fill="url(#paint6_linear_2357_66)"/>
<path d="M20.5 0V27.8014L30.0117 18.636L20.5 0Z" fill="url(#paint7_linear_2357_66)"/>
</g>
<path d="M69.8274 20.5433H65.843C65.7294 19.8899 65.5199 19.3111 65.2145 18.8068C64.9091 18.2955 64.5291 17.8622 64.0746 17.5071C63.62 17.152 63.1016 16.8857 62.5192 16.7081C61.9439 16.5234 61.3224 16.4311 60.6548 16.4311C59.4688 16.4311 58.4176 16.7294 57.5014 17.326C56.5852 17.9155 55.8679 18.782 55.3494 19.9254C54.831 21.0618 54.5717 22.4503 54.5717 24.0909C54.5717 25.7599 54.831 27.1662 55.3494 28.3097C55.875 29.446 56.5923 30.3054 57.5014 30.8878C58.4176 31.4631 59.4652 31.7507 60.6442 31.7507C61.2976 31.7507 61.9084 31.6655 62.4766 31.495C63.0518 31.3175 63.5668 31.0582 64.0213 30.7173C64.483 30.3764 64.87 29.9574 65.1825 29.4602C65.5021 28.9631 65.7223 28.3949 65.843 27.7557L69.8274 27.777C69.6783 28.8139 69.3551 29.7869 68.858 30.696C68.3679 31.6051 67.7251 32.4077 66.9297 33.1037C66.1342 33.7926 65.2038 34.3324 64.1385 34.723C63.0732 35.1065 61.8906 35.2983 60.5909 35.2983C58.6733 35.2983 56.9616 34.8544 55.456 33.9666C53.9503 33.0788 52.7642 31.7969 51.8977 30.1207C51.0313 28.4446 50.598 26.4347 50.598 24.0909C50.598 21.7401 51.0348 19.7301 51.9084 18.0611C52.782 16.3849 53.9716 15.103 55.4773 14.2152C56.983 13.3274 58.6875 12.8835 60.5909 12.8835C61.8054 12.8835 62.9347 13.054 63.9787 13.3949C65.0227 13.7358 65.9531 14.2365 66.7699 14.897C67.5866 15.5504 68.2578 16.353 68.7834 17.3047C69.3161 18.2493 69.6641 19.3288 69.8274 20.5433ZM77.133 13.1818V35H73.2765V13.1818H77.133ZM88.2365 35.3196C86.6385 35.3196 85.2536 34.968 84.0817 34.2649C82.9098 33.5618 82.0007 32.5781 81.3544 31.3139C80.7152 30.0497 80.3956 28.5724 80.3956 26.8821C80.3956 25.1918 80.7152 23.7109 81.3544 22.4396C82.0007 21.1683 82.9098 20.1811 84.0817 19.478C85.2536 18.7749 86.6385 18.4233 88.2365 18.4233C89.8345 18.4233 91.2195 18.7749 92.3913 19.478C93.5632 20.1811 94.4688 21.1683 95.108 22.4396C95.7543 23.7109 96.0774 25.1918 96.0774 26.8821C96.0774 28.5724 95.7543 30.0497 95.108 31.3139C94.4688 32.5781 93.5632 33.5618 92.3913 34.2649C91.2195 34.968 89.8345 35.3196 88.2365 35.3196ZM88.2578 32.2301C89.1243 32.2301 89.8487 31.9922 90.4311 31.5163C91.0135 31.0334 91.4467 30.3871 91.7308 29.5774C92.022 28.7678 92.1676 27.8658 92.1676 26.8714C92.1676 25.87 92.022 24.9645 91.7308 24.1548C91.4467 23.3381 91.0135 22.6882 90.4311 22.2053C89.8487 21.7223 89.1243 21.4808 88.2578 21.4808C87.37 21.4808 86.6314 21.7223 86.0419 22.2053C85.4595 22.6882 85.0227 23.3381 84.7315 24.1548C84.4474 24.9645 84.3054 25.87 84.3054 26.8714C84.3054 27.8658 84.4474 28.7678 84.7315 29.5774C85.0227 30.3871 85.4595 31.0334 86.0419 31.5163C86.6314 31.9922 87.37 32.2301 88.2578 32.2301ZM109.78 28.1179V18.6364H113.637V35H109.898V32.0916H109.727C109.358 33.0078 108.751 33.7571 107.905 34.3395C107.067 34.9219 106.034 35.2131 104.805 35.2131C103.733 35.2131 102.785 34.9751 101.961 34.4993C101.144 34.0163 100.505 33.3168 100.043 32.4006C99.5815 31.4773 99.3507 30.3622 99.3507 29.0554V18.6364H103.207V28.4588C103.207 29.4957 103.491 30.3196 104.059 30.9304C104.628 31.5412 105.373 31.8466 106.297 31.8466C106.865 31.8466 107.415 31.7081 107.948 31.4311C108.481 31.1541 108.917 30.7422 109.258 30.1953C109.606 29.6413 109.78 28.9489 109.78 28.1179ZM123.675 35.2876C122.39 35.2876 121.239 34.9574 120.223 34.2969C119.208 33.6364 118.405 32.6776 117.816 31.4205C117.226 30.1634 116.931 28.6364 116.931 26.8395C116.931 25.0213 117.23 23.4872 117.826 22.2372C118.43 20.9801 119.243 20.032 120.266 19.3928C121.289 18.7464 122.429 18.4233 123.686 18.4233C124.645 18.4233 125.433 18.5866 126.051 18.9134C126.669 19.233 127.159 19.62 127.521 20.0746C127.883 20.522 128.164 20.9446 128.363 21.3423H128.522V13.1818H132.39V35H128.597V32.4219H128.363C128.164 32.8196 127.876 33.2422 127.5 33.6896C127.123 34.13 126.626 34.5064 126.008 34.8189C125.39 35.1314 124.613 35.2876 123.675 35.2876ZM124.751 32.1236C125.568 32.1236 126.264 31.9034 126.839 31.4631C127.414 31.0156 127.851 30.3942 128.15 29.5987C128.448 28.8033 128.597 27.8764 128.597 26.8182C128.597 25.7599 128.448 24.8402 128.15 24.0589C127.858 23.2777 127.425 22.6705 126.85 22.2372C126.282 21.804 125.582 21.5874 124.751 21.5874C123.892 21.5874 123.174 21.8111 122.599 22.2585C122.024 22.706 121.591 23.3239 121.299 24.1122C121.008 24.9006 120.863 25.8026 120.863 26.8182C120.863 27.8409 121.008 28.7536 121.299 29.5561C121.598 30.3516 122.034 30.9801 122.61 31.4418C123.192 31.8963 123.906 32.1236 124.751 32.1236Z" fill="white"/>
<path d="M139.972 13.1818L144.777 21.1719H144.947L149.773 13.1818H154.28L147.557 24.0909L154.386 35H149.805L144.947 27.0632H144.777L139.919 35H135.359L142.252 24.0909L135.444 13.1818H139.972Z" fill="url(#paint8_linear_2357_66)"/>
<defs>
<linearGradient id="paint0_linear_2357_66" x1="11.8475" y1="11.7932" x2="28.3456" y2="29.8905" gradientUnits="userSpaceOnUse">
<stop stop-color="#C239E4"/>
<stop offset="1" stop-color="#2371E7"/>
</linearGradient>
<linearGradient id="paint1_linear_2357_66" x1="4.74108" y1="11.7937" x2="20.0119" y2="21.934" gradientUnits="userSpaceOnUse">
<stop stop-color="#C239E4"/>
<stop offset="1" stop-color="#2371E7"/>
</linearGradient>
<linearGradient id="paint2_linear_2357_66" x1="7.23975" y1="21.9999" x2="16.7726" y2="37.1472" gradientUnits="userSpaceOnUse">
<stop stop-color="#C239E4"/>
<stop offset="1" stop-color="#2371E7"/>
</linearGradient>
<linearGradient id="paint3_linear_2357_66" x1="15.5069" y1="-0.120621" x2="30.394" y2="9.39708" gradientUnits="userSpaceOnUse">
<stop stop-color="#C239E4"/>
<stop offset="1" stop-color="#2371E7"/>
</linearGradient>
<linearGradient id="paint4_linear_2357_66" x1="28.3319" y1="11.7932" x2="44.83" y2="29.8905" gradientUnits="userSpaceOnUse">
<stop stop-color="#C239E4"/>
<stop offset="1" stop-color="#2371E7"/>
</linearGradient>
<linearGradient id="paint5_linear_2357_66" x1="35.7638" y1="11.7932" x2="51.0337" y2="21.9313" gradientUnits="userSpaceOnUse">
<stop stop-color="#C239E4"/>
<stop offset="1" stop-color="#2371E7"/>
</linearGradient>
<linearGradient id="paint6_linear_2357_66" x1="33.0015" y1="21.9999" x2="42.5343" y2="37.1472" gradientUnits="userSpaceOnUse">
<stop stop-color="#C239E4"/>
<stop offset="1" stop-color="#2371E7"/>
</linearGradient>
<linearGradient id="paint7_linear_2357_66" x1="25.0186" y1="-0.120621" x2="39.9057" y2="9.39707" gradientUnits="userSpaceOnUse">
<stop stop-color="#C239E4"/>
<stop offset="1" stop-color="#2371E7"/>
</linearGradient>
<linearGradient id="paint8_linear_2357_66" x1="156" y1="12.5" x2="132.5" y2="35" gradientUnits="userSpaceOnUse">
<stop stop-color="#C239E4"/>
<stop offset="1" stop-color="#2371E7"/>
</linearGradient>
<clipPath id="clip0_2357_66">
<rect width="41" height="40" fill="white"/>
</clipPath>
</defs>
</svg>
