<svg width="134" height="40" viewBox="0 0 134 40" fill="none" xmlns="http://www.w3.org/2000/svg">
<g id="logo-amazon (1) 1">
<path id="Vector" d="M30.0826 9.81244V22.1903C30.0826 22.391 30.0023 22.5834 29.8593 22.7253C29.7164 22.8671 29.5225 22.9469 29.3203 22.9469H25.3829C25.1808 22.9468 24.9869 22.867 24.844 22.7252C24.701 22.5833 24.6207 22.3909 24.6206 22.1903V2.05707C24.6206 1.85643 24.7009 1.66401 24.8439 1.52213C24.9868 1.38025 25.1807 1.30055 25.3829 1.30055H29.0265C29.2287 1.30055 29.4226 1.38025 29.5656 1.52213C29.7085 1.66401 29.7888 1.85643 29.7888 2.05707V4.89237C29.7888 4.89237 31.0913 0.847903 34.9568 0.847903C34.9568 0.847903 38.7802 0.389253 40.3348 4.6005C40.3348 4.6005 41.6373 0.847903 45.5868 0.847903C45.5868 0.847903 51.4602 0.50133 51.4602 6.5325L51.5049 9.85413V22.232C51.5049 22.4327 51.4246 22.6251 51.2816 22.767C51.1387 22.9088 50.9448 22.9886 50.7426 22.9886H46.8049C46.6027 22.9885 46.4089 22.9087 46.2659 22.7669C46.123 22.625 46.0426 22.4326 46.0425 22.232L46.0066 8.72835C46.1185 5.67057 43.6258 5.89306 43.6258 5.89306C40.4887 5.94876 40.7906 9.85413 40.7906 9.85413V22.232C40.7906 22.4327 40.7103 22.6251 40.5673 22.767C40.4243 22.9088 40.2304 22.9886 40.0282 22.9886H36.0909C35.8887 22.9885 35.6949 22.9087 35.5519 22.7669C35.409 22.625 35.3286 22.4326 35.3285 22.232V9.0339C35.3285 9.0339 35.5588 5.86504 32.7575 5.86504C32.7578 5.86504 29.9848 5.50379 30.0826 9.81244ZM131.577 9.77541V22.153C131.577 22.3536 131.497 22.546 131.354 22.6878C131.211 22.8297 131.017 22.9094 130.815 22.9095L126.72 22.9882C126.518 22.9881 126.324 22.9084 126.181 22.7665C126.038 22.6247 125.958 22.4323 125.958 22.2317V9.0339C125.958 9.0339 126.188 5.86504 123.387 5.86504C123.387 5.86504 120.712 5.73428 120.712 10.7027V22.19C120.712 22.3906 120.631 22.583 120.489 22.7248C120.346 22.8667 120.152 22.9464 119.95 22.9465H116.012C115.81 22.9464 115.616 22.8667 115.473 22.7248C115.33 22.583 115.25 22.3906 115.25 22.19V2.05707C115.25 1.85646 115.33 1.66408 115.473 1.52223C115.616 1.38037 115.81 1.30064 116.012 1.30055H119.655C119.858 1.30055 120.052 1.38025 120.195 1.52213C120.337 1.66401 120.418 1.85643 120.418 2.05707V4.89237C120.418 4.89237 121.72 0.847903 125.586 0.847903C125.586 0.847903 129.726 0.224472 131.121 4.52211C131.121 4.52178 131.577 5.40839 131.577 9.77541ZM103.148 0.764512C98.1128 0.764512 94.0306 4.97576 94.0306 12.064C94.0306 18.3046 97.1817 23.3635 103.148 23.3635C108.778 23.3635 112.265 18.3046 112.265 12.064C112.265 5.10084 108.183 0.764512 103.148 0.764512ZM106.326 12.3142C106.326 14.9827 105.99 16.4003 105.99 16.4003C105.512 19.2213 103.448 19.2253 103.144 19.2103C102.816 19.2233 100.735 19.1939 100.304 16.4003C100.304 16.4003 99.9679 14.9827 99.9679 12.3142V11.8695C99.9679 9.20101 100.304 7.78337 100.304 7.78337C100.735 4.98977 102.816 4.96041 103.144 4.97309C103.448 4.95808 105.512 4.96175 105.99 7.78337C105.99 7.78337 106.326 9.20101 106.326 11.8695V12.3142ZM91.7452 4.86435V1.97568C91.7452 1.77507 91.6648 1.58269 91.5219 1.44084C91.3789 1.29898 91.1851 1.21925 90.9829 1.21916H77.9681C77.7659 1.21916 77.572 1.29886 77.4291 1.44074C77.2861 1.58262 77.2058 1.77504 77.2058 1.97568V4.842C77.2059 5.04261 77.2862 5.23499 77.4292 5.37684C77.5721 5.5187 77.766 5.59843 77.9681 5.59852H84.7568L76.7214 17.1665C76.7214 17.1665 76.4048 17.6355 76.4152 18.1535V21.6723C76.4152 21.6723 76.3628 22.8788 77.7416 22.1787C77.7416 22.1787 80.1906 20.7103 84.297 20.7103C84.297 20.7103 88.3524 20.6603 91.0562 22.3051C91.0562 22.3051 92.1785 22.8114 92.1785 21.698V18.6352C92.1785 18.6352 92.2804 17.8246 91.2091 17.3186C91.2091 17.3186 88.0973 15.6228 84.0164 15.901L91.7452 4.86435ZM21.5817 19.3464L20.3491 17.4844C19.9568 16.7893 19.9851 16.0107 19.9851 16.0107V7.42178C20.1531 -1.69277e-05 11.8619 0.639426 11.8619 0.639426C4.49135 0.639426 3.40264 6.3317 3.40264 6.3317C3.09542 7.47615 3.98884 7.50384 3.98884 7.50384L7.59043 7.86642C7.59043 7.86642 8.20453 8.00585 8.42805 7.28035C8.42805 7.28035 8.90233 4.79697 11.5547 4.79697C14.4407 4.79697 14.4108 7.255 14.4108 7.255V9.31276C8.64956 9.50389 5.97971 11.091 5.97971 11.091C2.42249 13.0924 2.64635 17.0675 2.64635 17.0675C2.64635 23.5439 8.86468 23.2657 8.86468 23.2657C12.8421 23.2657 15.1949 20.3751 15.1949 20.3751C15.8951 21.5986 17.1838 22.7654 17.1838 22.7654C17.8285 23.4592 18.5004 22.8768 18.5004 22.8768L21.4136 20.4031C22.0576 19.9301 21.5817 19.3464 21.5817 19.3464ZM10.8058 19.2663C8.93493 19.2663 8.23949 17.4214 8.55007 15.6081C8.86098 13.7949 10.4757 12.3699 14.4111 12.4116V13.514C14.5506 18.33 12.3631 19.2663 10.8058 19.2663ZM73.905 19.3464L72.6728 17.4844C72.2805 16.7893 72.3084 16.0107 72.3084 16.0107V7.42178C72.4765 -1.69277e-05 64.1853 0.639426 64.1853 0.639426C56.8147 0.639426 55.726 6.3317 55.726 6.3317C55.4188 7.47615 56.3122 7.50384 56.3122 7.50384L59.9138 7.86642C59.9138 7.86642 60.5279 8.00585 60.7514 7.28035C60.7514 7.28035 61.2257 4.79697 63.8781 4.79697C66.764 4.79697 66.7341 7.255 66.7341 7.255V9.31276C60.9733 9.50389 58.3031 11.091 58.3031 11.091C54.7459 13.0924 54.9697 17.0675 54.9697 17.0675C54.9697 23.5439 61.188 23.2657 61.188 23.2657C65.1654 23.2657 67.5183 20.3751 67.5183 20.3751C68.2188 21.5986 69.5068 22.7654 69.5068 22.7654C70.1515 23.4592 70.8238 22.8768 70.8238 22.8768L73.7366 20.4031C74.381 19.9301 73.905 19.3464 73.905 19.3464ZM63.1292 19.2663C61.2583 19.2663 60.5629 17.4214 60.8734 15.6081C61.1843 13.7949 62.7991 12.3699 66.7341 12.4116V13.514C66.8739 18.33 64.6868 19.2663 63.1292 19.2663Z" fill="black" fill-opacity="0.5"/>
<g id="Group">
<path id="Vector_2" d="M83.8193 35.6036C83.8193 35.6036 83.4899 36.1724 83.8946 36.2995C83.8946 36.2995 84.3518 36.4766 84.9218 35.9515C84.9218 35.9515 89.0794 32.3474 89.1795 25.7855C89.1795 25.7855 89.2101 24.966 88.8787 24.7418C88.8787 24.7418 87.5762 23.5983 82.8926 23.9462C82.8926 23.9462 78.8101 24.2198 76.5812 26.1835C76.5812 26.1835 76.3809 26.3572 76.3809 26.5807C76.3809 26.5807 76.3328 27.0634 77.558 26.8543C77.558 26.8543 81.6402 26.2822 84.0697 26.5807C84.0697 26.5807 85.3225 26.7298 85.6731 27.1528C85.6731 27.1528 86.2492 27.6251 85.9484 29.1905C85.9484 29.1912 85.1215 33.168 83.8193 35.6036Z" fill="#F3971B"/>
<path id="Vector_3" d="M82.9961 29.3083C82.9961 29.3083 83.6059 30.0922 82.622 30.7683C82.622 30.7683 72.1124 39.1107 54.4658 39.1107C54.4658 39.1107 36.3009 40 21.1332 26.3239C21.1332 26.3239 20.6014 25.8606 20.9315 25.4299C20.9315 25.4299 21.2266 25.0337 21.9906 25.4646C21.9906 25.4646 36.2588 34.2877 54.9979 34.2877C54.9979 34.2877 68.0227 34.7881 81.3837 29.1175C81.3837 29.1175 82.4482 28.5701 82.9961 29.3083Z" fill="#F3971B"/>
</g>
</g>
</svg>
